<svg xmlns="http://www.w3.org/2000/svg" xmlns:xlink="http://www.w3.org/1999/xlink" width="50" zoomAndPan="magnify" viewBox="0 0 37.5 37.499999" height="50" preserveAspectRatio="xMidYMid meet" version="1.0"><defs><clipPath id="15c6d76ec0"><path d="M 0 0 L 37.007812 0 L 37.007812 37.007812 L 0 37.007812 Z M 0 0 " clip-rule="nonzero"/></clipPath><clipPath id="15fc586e0f"><path d="M 6 3.699219 L 31 3.699219 L 31 33.304688 L 6 33.304688 Z M 6 3.699219 " clip-rule="nonzero"/></clipPath><clipPath id="0e97c62fdb"><path d="M 28 15 L 35.886719 15 L 35.886719 25 L 28 25 Z M 28 15 " clip-rule="nonzero"/></clipPath><clipPath id="f1146c2c33"><path d="M 1.101562 15 L 9 15 L 9 25 L 1.101562 25 Z M 1.101562 15 " clip-rule="nonzero"/></clipPath></defs><g clip-path="url(#15c6d76ec0)"><path fill="#ffffff" d="M 0 0 L 37.007812 0 L 37.007812 37.007812 L 0 37.007812 Z M 0 0 " fill-opacity="1" fill-rule="nonzero"/><path fill="#ffffff" d="M 0 0 L 37.007812 0 L 37.007812 37.007812 L 0 37.007812 Z M 0 0 " fill-opacity="1" fill-rule="nonzero"/></g><g clip-path="url(#15fc586e0f)"><path fill="#000000" d="M 18.035156 33.304688 C 17.976562 33.304688 17.933594 33.304688 17.875 33.265625 C 12.523438 30.722656 8.820312 25.695312 7.210938 18.695312 C 5.992188 13.425781 6.355469 8.992188 6.355469 8.789062 C 6.355469 8.6875 6.417969 8.5625 6.5 8.523438 C 6.601562 8.460938 6.703125 8.402344 6.824219 8.421875 C 6.867188 8.421875 11.421875 8.992188 18.382812 3.824219 C 18.523438 3.699219 18.707031 3.699219 18.851562 3.824219 C 25.789062 8.992188 30.367188 8.421875 30.429688 8.421875 C 30.53125 8.402344 30.652344 8.460938 30.734375 8.523438 C 30.816406 8.5625 30.875 8.6875 30.875 8.789062 C 30.898438 8.992188 31.304688 13.425781 29.941406 18.695312 C 28.148438 25.695312 24.078125 30.761719 18.179688 33.265625 C 18.160156 33.304688 18.097656 33.304688 18.035156 33.304688 Z M 18.625 26.792969 C 14.046875 26.792969 10.34375 23.070312 10.34375 18.511719 C 10.34375 13.976562 14.089844 10.230469 18.625 10.230469 C 23.203125 10.230469 26.910156 13.976562 26.910156 18.511719 C 26.910156 23.070312 23.183594 26.792969 18.625 26.792969 Z M 21.660156 18.921875 L 19.929688 18.921875 C 19.746094 19.46875 19.238281 19.875 18.625 19.875 C 17.894531 19.875 17.285156 19.246094 17.285156 18.511719 C 17.285156 17.921875 17.691406 17.394531 18.238281 17.230469 L 18.238281 14.648438 C 18.238281 14.421875 18.402344 14.261719 18.625 14.261719 C 18.851562 14.261719 19.035156 14.445312 19.035156 14.648438 L 19.035156 17.230469 C 19.460938 17.355469 19.785156 17.699219 19.929688 18.125 L 21.660156 18.125 C 21.882812 18.125 22.046875 18.289062 22.046875 18.511719 C 22.046875 18.738281 21.882812 18.921875 21.660156 18.921875 Z M 18.625 17.984375 C 18.320312 17.984375 18.097656 18.230469 18.097656 18.511719 C 18.097656 18.839844 18.34375 19.0625 18.625 19.0625 C 18.910156 19.0625 19.175781 18.796875 19.175781 18.511719 C 19.175781 18.207031 18.910156 17.984375 18.625 17.984375 Z M 18.625 11.027344 C 14.496094 11.027344 11.136719 14.402344 11.136719 18.511719 C 11.136719 22.644531 14.496094 26 18.625 26 C 22.757812 26 26.113281 22.644531 26.113281 18.511719 C 26.113281 14.402344 22.757812 11.027344 18.625 11.027344 Z M 18.625 11.027344 " fill-opacity="1" fill-rule="evenodd"/></g><g clip-path="url(#0e97c62fdb)"><path fill="#000000" d="M 35.453125 24.171875 L 28.636719 24.171875 C 29.472656 22.523438 30.125 20.730469 30.589844 18.859375 C 30.875 17.761719 31.101562 16.621094 31.261719 15.503906 L 35.453125 15.503906 C 35.617188 15.503906 35.761719 15.582031 35.820312 15.726562 C 35.882812 15.867188 35.882812 16.03125 35.761719 16.152344 L 32.585938 19.957031 L 35.738281 23.5 C 35.839844 23.601562 35.882812 23.785156 35.78125 23.925781 C 35.699219 24.066406 35.617188 24.171875 35.453125 24.171875 Z M 35.453125 24.171875 " fill-opacity="1" fill-rule="evenodd"/></g><g clip-path="url(#f1146c2c33)"><path fill="#000000" d="M 8.332031 24.171875 L 1.535156 24.171875 C 1.371094 24.171875 1.230469 24.089844 1.167969 23.925781 C 1.105469 23.785156 1.128906 23.601562 1.230469 23.5 L 4.363281 19.957031 L 1.230469 16.152344 C 1.105469 16.03125 1.105469 15.867188 1.167969 15.726562 C 1.230469 15.582031 1.371094 15.503906 1.535156 15.503906 L 5.949219 15.503906 C 6.09375 16.621094 6.296875 17.742188 6.558594 18.839844 C 6.988281 20.691406 7.578125 22.480469 8.332031 24.171875 Z M 8.332031 24.171875 " fill-opacity="1" fill-rule="evenodd"/></g></svg>