<!DOCTYPE svg PUBLIC "-//W3C//DTD SVG 1.1//EN" "http://www.w3.org/Graphics/SVG/1.1/DTD/svg11.dtd">
<!-- Uploaded to: SVG Repo, www.svgrepo.com, Transformed by: SVG Repo Mixer Tools -->
<svg fill="#000000" version="1.1" id="Capa_1" xmlns="http://www.w3.org/2000/svg" xmlns:xlink="http://www.w3.org/1999/xlink" width="76px" height="76px" viewBox="0 0 47.05 47.049" xml:space="preserve">
<g id="SVGRepo_bgCarrier" stroke-width="0"/>
<g id="SVGRepo_tracerCarrier" stroke-linecap="round" stroke-linejoin="round"/>
<g id="SVGRepo_iconCarrier"> <g> <g> <path d="M43.656,16.982c-0.729-2.255,0.268-5.41-1.098-7.287C41.179,7.8,37.859,7.78,35.964,6.4 c-1.876-1.365-2.914-4.523-5.168-5.255c-2.174-0.706-4.86,1.216-7.271,1.216c-2.41,0-5.097-1.922-7.271-1.216 C14,1.876,12.962,5.035,11.085,6.4C9.19,7.78,5.872,7.8,4.493,9.695c-1.365,1.877-0.369,5.032-1.1,7.287 C2.686,19.156,0,21.113,0,23.525c0,2.41,2.686,4.367,3.393,6.542c0.73,2.254-0.267,5.41,1.1,7.287 c1.379,1.895,4.698,1.915,6.593,3.294c1.876,1.365,2.914,4.523,5.168,5.257c2.175,0.705,4.86-1.217,7.271-1.217 c2.411,0,5.097,1.922,7.271,1.217c2.254-0.732,3.292-3.892,5.168-5.256c1.896-1.379,5.214-1.4,6.595-3.295 c1.364-1.876,0.367-5.032,1.098-7.286c0.707-2.175,3.394-4.133,3.394-6.543C47.049,21.113,44.363,19.157,43.656,16.982z M23.525,40.102c-9.155,0-16.577-7.423-16.577-16.577c0-9.156,7.422-16.578,16.577-16.578c9.156,0,16.577,7.422,16.577,16.578 C40.102,32.679,32.681,40.102,23.525,40.102z"/> <path d="M23.525,9.062c-7.975,0-14.463,6.488-14.463,14.463s6.488,14.463,14.463,14.463S37.988,31.5,37.988,23.525 S31.5,9.062,23.525,9.062z M23.525,35.626c-6.673,0-12.102-5.429-12.102-12.102c0-6.673,5.429-12.102,12.102-12.102 c6.672,0,12.102,5.428,12.102,12.102C35.627,30.198,30.197,35.626,23.525,35.626z"/> <path d="M24.859,21.932c-1.836-0.692-2.593-1.146-2.593-1.858c0-0.605,0.454-1.211,1.858-1.211c0.853,0,1.536,0.149,2.073,0.323 c0.269,0.087,0.562,0.057,0.808-0.084c0.246-0.141,0.42-0.38,0.479-0.656l0.107-0.5c0.105-0.492-0.17-0.983-0.645-1.151 c-0.502-0.179-1.176-0.312-2.422-0.352v-0.917c0-0.552-0.449-1-1-1c-0.552,0-1,0.448-1,1v1.067c-2,0.455-3.609,1.945-3.609,3.848 c0,2.096,1.601,3.177,3.913,3.956c1.6,0.54,2.302,1.059,2.302,1.88c0,0.864-0.837,1.34-2.068,1.34c-0.935,0-1.81-0.201-2.558-0.48 c-0.266-0.1-0.563-0.081-0.814,0.052c-0.252,0.132-0.437,0.364-0.507,0.641l-0.135,0.538c-0.128,0.509,0.158,1.029,0.657,1.193 c0.909,0.299,2.093,0.518,2.821,0.564v1.402c0,0.552,0.448,1,1,1c0.552,0,1-0.448,1-1v-1.555c3-0.434,3.896-2.073,3.896-3.997 C28.421,24.029,27.432,22.838,24.859,21.932z"/> </g> </g> </g>
</svg>