<svg xmlns="http://www.w3.org/2000/svg" xmlns:xlink="http://www.w3.org/1999/xlink" width="50" zoomAndPan="magnify" viewBox="0 0 37.5 37.499999" height="50" preserveAspectRatio="xMidYMid meet" version="1.0"><defs><clipPath id="9cbddb0904"><path d="M 0 0 L 37.007812 0 L 37.007812 37.007812 L 0 37.007812 Z M 0 0 " clip-rule="nonzero"/></clipPath><clipPath id="c3383198cd"><path d="M 3.699219 15 L 13 15 L 13 22 L 3.699219 22 Z M 3.699219 15 " clip-rule="nonzero"/></clipPath><clipPath id="fc9bfd316d"><path d="M 15 24 L 22 24 L 22 33.304688 L 15 33.304688 Z M 15 24 " clip-rule="nonzero"/></clipPath><clipPath id="6b16a41651"><path d="M 15 3.699219 L 22 3.699219 L 22 13 L 15 13 Z M 15 3.699219 " clip-rule="nonzero"/></clipPath><clipPath id="9a1e9851af"><path d="M 24 15 L 33.304688 15 L 33.304688 22 L 24 22 Z M 24 15 " clip-rule="nonzero"/></clipPath></defs><g clip-path="url(#9cbddb0904)"><path fill="#ffffff" d="M 0 0 L 37.007812 0 L 37.007812 37.007812 L 0 37.007812 Z M 0 0 " fill-opacity="1" fill-rule="nonzero"/><path fill="#ffffff" d="M 0 0 L 37.007812 0 L 37.007812 37.007812 L 0 37.007812 Z M 0 0 " fill-opacity="1" fill-rule="nonzero"/></g><g clip-path="url(#c3383198cd)"><path fill="#000000" d="M 9.246094 19.226562 L 12.886719 19.226562 C 12.839844 18.984375 12.832031 18.742188 12.832031 18.503906 C 12.832031 18.261719 12.84375 18.019531 12.886719 17.78125 L 9.246094 17.78125 C 8.925781 16.574219 7.835938 15.679688 6.527344 15.679688 C 4.960938 15.675781 3.699219 16.941406 3.699219 18.503906 C 3.699219 20.066406 4.960938 21.328125 6.527344 21.328125 C 7.835938 21.328125 8.925781 20.433594 9.246094 19.226562 Z M 9.246094 19.226562 " fill-opacity="1" fill-rule="nonzero"/></g><path fill="#000000" d="M 10.039062 12.867188 C 10.554688 12.867188 11.027344 12.714844 11.449219 12.476562 L 14.023438 15.046875 C 14.308594 14.65625 14.65625 14.3125 15.042969 14.023438 L 12.472656 11.453125 C 12.714844 11.03125 12.863281 10.558594 12.863281 10.042969 C 12.863281 8.480469 11.601562 7.207031 10.035156 7.207031 C 8.476562 7.207031 7.199219 8.480469 7.199219 10.042969 C 7.199219 11.605469 8.476562 12.867188 10.039062 12.867188 Z M 10.039062 12.867188 " fill-opacity="1" fill-rule="nonzero"/><path fill="#000000" d="M 14.023438 21.960938 L 11.453125 24.535156 C 11.03125 24.292969 10.558594 24.144531 10.042969 24.144531 C 8.480469 24.144531 7.207031 25.40625 7.207031 26.96875 C 7.207031 28.53125 8.480469 29.804688 10.042969 29.804688 C 11.605469 29.804688 12.867188 28.53125 12.867188 26.96875 C 12.867188 26.453125 12.71875 25.984375 12.480469 25.558594 L 15.050781 22.988281 C 14.65625 22.695312 14.3125 22.347656 14.023438 21.960938 Z M 14.023438 21.960938 " fill-opacity="1" fill-rule="nonzero"/><g clip-path="url(#fc9bfd316d)"><path fill="#000000" d="M 19.226562 27.757812 L 19.226562 24.117188 C 18.984375 24.164062 18.742188 24.175781 18.503906 24.175781 C 18.261719 24.175781 18.019531 24.164062 17.78125 24.117188 L 17.78125 27.757812 C 16.574219 28.078125 15.679688 29.171875 15.679688 30.480469 C 15.679688 32.039062 16.941406 33.304688 18.507812 33.304688 C 20.066406 33.304688 21.332031 32.042969 21.332031 30.480469 C 21.328125 29.171875 20.433594 28.078125 19.226562 27.757812 Z M 19.226562 27.757812 " fill-opacity="1" fill-rule="nonzero"/></g><g clip-path="url(#6b16a41651)"><path fill="#000000" d="M 17.78125 9.246094 L 17.78125 12.886719 C 18.019531 12.839844 18.261719 12.832031 18.503906 12.832031 C 18.742188 12.832031 18.984375 12.84375 19.226562 12.886719 L 19.226562 9.246094 C 20.433594 8.925781 21.328125 7.835938 21.328125 6.527344 C 21.328125 4.964844 20.066406 3.699219 18.5 3.699219 C 16.9375 3.699219 15.671875 4.960938 15.671875 6.527344 C 15.675781 7.835938 16.574219 8.925781 17.78125 9.246094 Z M 17.78125 9.246094 " fill-opacity="1" fill-rule="nonzero"/></g><path fill="#000000" d="M 26.96875 24.140625 C 26.449219 24.140625 25.980469 24.289062 25.554688 24.53125 L 22.984375 21.957031 C 22.699219 22.347656 22.351562 22.691406 21.960938 22.976562 L 24.535156 25.550781 C 24.292969 25.972656 24.144531 26.445312 24.144531 26.960938 C 24.144531 28.523438 25.40625 29.796875 26.96875 29.796875 C 28.53125 29.796875 29.804688 28.523438 29.804688 26.960938 C 29.804688 25.40625 28.527344 24.140625 26.96875 24.140625 Z M 26.96875 24.140625 " fill-opacity="1" fill-rule="nonzero"/><path fill="#000000" d="M 22.980469 15.046875 L 25.550781 12.476562 C 25.976562 12.714844 26.445312 12.867188 26.964844 12.867188 C 28.527344 12.867188 29.800781 11.605469 29.800781 10.039062 C 29.800781 8.476562 28.527344 7.203125 26.964844 7.203125 C 25.402344 7.203125 24.136719 8.476562 24.136719 10.039062 C 24.136719 10.554688 24.289062 11.027344 24.527344 11.449219 L 21.957031 14.023438 C 22.347656 14.3125 22.695312 14.65625 22.980469 15.046875 Z M 22.980469 15.046875 " fill-opacity="1" fill-rule="nonzero"/><g clip-path="url(#9a1e9851af)"><path fill="#000000" d="M 30.480469 15.675781 C 29.171875 15.675781 28.078125 16.570312 27.757812 17.777344 L 24.117188 17.777344 C 24.164062 18.015625 24.175781 18.261719 24.175781 18.5 C 24.175781 18.738281 24.164062 18.984375 24.117188 19.222656 L 27.757812 19.222656 C 28.078125 20.429688 29.171875 21.324219 30.480469 21.324219 C 32.039062 21.324219 33.304688 20.0625 33.304688 18.496094 C 33.304688 16.941406 32.042969 15.675781 30.480469 15.675781 Z M 30.480469 15.675781 " fill-opacity="1" fill-rule="nonzero"/></g><path fill="#000000" d="M 18.503906 14.246094 C 16.152344 14.246094 14.25 16.152344 14.25 18.5 C 14.25 20.851562 16.152344 22.753906 18.503906 22.753906 C 20.851562 22.753906 22.757812 20.851562 22.757812 18.5 C 22.757812 16.152344 20.851562 14.246094 18.503906 14.246094 Z M 18.503906 14.246094 " fill-opacity="1" fill-rule="nonzero"/></svg>